<?xml version="1.0" encoding="utf-8"?>
<svg version="1.0" width="512.000000pt" height="512.000000pt" viewBox="0 0 512.000000 512.000000" preserveAspectRatio="xMidYMid meet" xmlns="http://www.w3.org/2000/svg">
  <g transform="translate(0.000000,512.000000) scale(0.100000,-0.100000)" fill="#000000" stroke="none">
    <path d="M2337 4794 c-2 -2 -37 -9 -78 -15 -94 -13 -110 -16 -189 -34 -145 -33 -224 -59 -366 -121 -124 -53 -279 -131 -306 -153 -7 -6 -51 -36 -98 -67 -47 -32 -87 -60 -90 -63 -3 -3 -44 -39 -91 -79 -100 -84 -199 -186 -284 -292 -33 -41 -63 -79 -68 -85 -31 -38 -197 -317 -197 -332 0 -2 -11 -28 -24 -56 -27 -58 -86 -204 -92 -227 -2 -8 -17 -64 -34 -125 -52 -186 -65 -299 -64 -580 0 -139 6 -281 12 -320 7 -38 14 -83 16 -100 17 -111 91 -351 143 -459 12 -28 23 -53 23 -56 0 -8 119 -229 131 -245 5 -5 34 -48 65 -95 111 -167 312 -376 494 -513 56 -42 140 -97 149 -97 6 0 11 -4 11 -10 0 -5 4 -10 9 -10 5 0 39 -18 75 -40 36 -22 67 -40 70 -40 2 0 47 -20 99 -45 53 -25 102 -45 110 -45 7 0 17 -4 23 -9 14 -14 236 -80 319 -95 17 -3 55 -10 85 -16 111 -20 179 -25 380 -25 227 0 261 3 460 40 82 15 251 64 325 94 105 44 237 104 280 129 77 44 210 129 250 159 17 13 35 27 40 31 36 26 161 137 221 197 298 297 523 715 599 1110 5 22 10 47 12 55 1 8 5 31 7 50 2 19 6 42 9 50 10 26 19 180 20 310 0 129 -17 321 -37 410 -1 8 -6 33 -11 55 -22 115 -71 274 -113 367 -14 31 -25 59 -24 62 1 7 -77 163 -118 235 -28 49 -127 198 -140 211 -3 3 -32 39 -65 80 -70 88 -194 215 -285 291 -36 30 -67 57 -70 60 -3 3 -39 27 -80 54 -41 28 -77 52 -80 55 -3 3 -21 14 -40 24 -19 11 -37 23 -40 27 -13 18 -307 151 -405 182 -192 61 -244 73 -407 98 -70 11 -532 22 -541 13z m139 -1025 c290 -40 547 -196 699 -425 64 -96 85 -141 111 -239 25 -95 25 -310 0 -410 -67 -260 -282 -491 -512 -548 -190 -47 -368 -19 -525 84 -200 132 -294 343 -248 561 22 106 105 235 187 292 97 67 256 87 366 46 47 -18 153 -96 143 -106 -2 -2 -36 13 -77 34 -65 33 -80 37 -149 37 -61 0 -87 -5 -132 -26 -111 -52 -184 -148 -210 -276 -35 -169 78 -361 251 -429 66 -25 88 -29 180 -29 92 0 114 4 178 29 121 47 232 169 284 312 27 74 36 233 18 313 -47 213 -235 401 -475 477 -90 29 -314 27 -410 -4 -104 -32 -229 -107 -307 -184 -81 -80 -176 -222 -212 -315 -58 -156 -70 -218 -71 -378 0 -155 4 -182 53 -325 49 -146 126 -266 246 -385 208 -206 486 -333 795 -366 230 -24 470 22 721 139 63 30 222 132 262 170 15 14 31 22 35 19 9 -10 -94 -114 -191 -193 -272 -222 -660 -322 -1046 -269 -313 42 -558 164 -793 394 -205 199 -314 434 -347 743 -18 167 4 340 68 528 165 485 636 795 1108 729z m1284 -1041 c59 -41 75 -72 75 -148 0 -54 -4 -74 -21 -97 -52 -69 -160 -88 -233 -40 -73 49 -95 183 -40 244 62 67 155 84 219 41z m-250 -483 c66 -34 82 -115 31 -165 -38 -39 -75 -47 -118 -26 -60 29 -81 127 -35 169 19 17 59 35 80 36 7 1 26 -6 42 -14z m-281 -251 c27 -34 27 -67 -1 -98 -37 -41 -72 -43 -108 -8 -35 36 -38 69 -9 106 16 20 29 26 59 26 30 0 43 -6 59 -26z" style="fill: rgb(72, 167, 246);"/>
  </g>
</svg>